# 3ds Max Wavefront OBJ Exporter v0.97b - (c)2007 guruware
# File Created: 05.03.2015 14:07:44

mtllib sphere200polys.mtl

#
# object Sphere001
#

v  -0.3728 13.8219 -0.0468
v  -0.3728 13.4840 -2.1804
v  -1.0321 13.4840 -2.0760
v  -1.6268 13.4840 -1.7729
v  -2.0989 13.4840 -1.3009
v  -2.4019 13.4840 -0.7061
v  -2.5063 13.4840 -0.0468
v  -2.4019 13.4840 0.6125
v  -2.0989 13.4840 1.2073
v  -1.6268 13.4840 1.6793
v  -1.0321 13.4840 1.9823
v  -0.3728 13.4840 2.0868
v  0.2865 13.4840 1.9823
v  0.8813 13.4840 1.6793
v  1.3533 13.4840 1.2073
v  1.6564 13.4840 0.6125
v  1.7608 13.4840 -0.0468
v  1.6564 13.4840 -0.7061
v  1.3533 13.4840 -1.3009
v  0.8813 13.4840 -1.7729
v  0.2865 13.4840 -2.0760
v  -1.6268 12.5033 -3.9065
v  -0.3728 12.5033 -4.1051
v  -2.7582 12.5033 -3.3300
v  -3.6560 12.5033 -2.4322
v  -4.2324 12.5033 -1.3009
v  -4.4311 12.5033 -0.0468
v  -4.2324 12.5033 1.2073
v  -3.6560 12.5033 2.3386
v  -2.7582 12.5033 3.2364
v  -1.6268 12.5033 3.8129
v  -0.3728 12.5033 4.0115
v  0.8813 12.5033 3.8129
v  2.0126 12.5033 3.2364
v  2.9105 12.5033 2.3386
v  3.4869 12.5033 1.2073
v  3.6855 12.5033 -0.0468
v  3.4869 12.5033 -1.3009
v  2.9105 12.5033 -2.4322
v  2.0126 12.5033 -3.3300
v  0.8813 12.5033 -3.9065
v  -2.0989 10.9758 -5.3592
v  -0.3728 10.9758 -5.6326
v  -3.6560 10.9758 -4.5658
v  -4.8917 10.9758 -3.3300
v  -5.6851 10.9758 -1.7729
v  -5.9585 10.9758 -0.0468
v  -5.6851 10.9758 1.6793
v  -4.8917 10.9758 3.2364
v  -3.6560 10.9758 4.4722
v  -2.0989 10.9758 5.2656
v  -0.3728 10.9758 5.5390
v  1.3533 10.9758 5.2656
v  2.9105 10.9758 4.4722
v  4.1462 10.9758 3.2364
v  4.9396 10.9758 1.6793
v  5.2130 10.9758 -0.0468
v  4.9396 10.9758 -1.7729
v  4.1462 10.9758 -3.3300
v  2.9105 10.9758 -4.5658
v  1.3533 10.9758 -5.3592
v  -2.4019 9.0511 -6.2919
v  -0.3728 9.0511 -6.6133
v  -4.2324 9.0511 -5.3592
v  -5.6851 9.0511 -3.9065
v  -6.6178 9.0511 -2.0760
v  -6.9392 9.0511 -0.0468
v  -6.6178 9.0511 1.9823
v  -5.6851 9.0511 3.8129
v  -4.2324 9.0511 5.2656
v  -2.4019 9.0511 6.1983
v  -0.3728 9.0511 6.5197
v  1.6564 9.0511 6.1983
v  3.4869 9.0511 5.2656
v  4.9396 9.0511 3.8129
v  5.8723 9.0511 1.9823
v  6.1937 9.0511 -0.0468
v  5.8723 9.0511 -2.0760
v  4.9396 9.0511 -3.9065
v  3.4869 9.0511 -5.3592
v  1.6564 9.0511 -6.2919
v  -2.5063 6.9175 -6.6133
v  -0.3728 6.9175 -6.9512
v  -4.4311 6.9175 -5.6326
v  -5.9585 6.9175 -4.1051
v  -6.9392 6.9175 -2.1804
v  -7.2772 6.9175 -0.0468
v  -6.9392 6.9175 2.0868
v  -5.9585 6.9175 4.0115
v  -4.4311 6.9175 5.5390
v  -2.5063 6.9175 6.5197
v  -0.3728 6.9175 6.8576
v  1.7608 6.9175 6.5197
v  3.6855 6.9175 5.5390
v  5.2130 6.9175 4.0115
v  6.1937 6.9175 2.0868
v  6.5316 6.9175 -0.0468
v  6.1937 6.9175 -2.1804
v  5.2130 6.9175 -4.1051
v  3.6855 6.9175 -5.6326
v  1.7608 6.9175 -6.6133
v  -2.4019 4.7840 -6.2919
v  -0.3728 4.7840 -6.6133
v  -4.2324 4.7840 -5.3592
v  -5.6851 4.7840 -3.9065
v  -6.6178 4.7840 -2.0760
v  -6.9392 4.7840 -0.0468
v  -6.6178 4.7840 1.9823
v  -5.6851 4.7840 3.8129
v  -4.2324 4.7840 5.2656
v  -2.4019 4.7840 6.1983
v  -0.3728 4.7840 6.5197
v  1.6564 4.7840 6.1983
v  3.4869 4.7840 5.2656
v  4.9396 4.7840 3.8129
v  5.8723 4.7840 1.9823
v  6.1937 4.7840 -0.0468
v  5.8723 4.7840 -2.0760
v  4.9396 4.7840 -3.9065
v  3.4869 4.7840 -5.3592
v  1.6564 4.7840 -6.2919
v  -2.0989 2.8592 -5.3592
v  -0.3728 2.8592 -5.6326
v  -3.6560 2.8592 -4.5658
v  -4.8917 2.8592 -3.3300
v  -5.6851 2.8592 -1.7729
v  -5.9585 2.8592 -0.0468
v  -5.6851 2.8592 1.6793
v  -4.8917 2.8592 3.2364
v  -3.6560 2.8592 4.4722
v  -2.0989 2.8592 5.2656
v  -0.3728 2.8592 5.5390
v  1.3533 2.8592 5.2656
v  2.9105 2.8592 4.4722
v  4.1462 2.8592 3.2364
v  4.9396 2.8592 1.6793
v  5.2130 2.8592 -0.0468
v  4.9396 2.8592 -1.7729
v  4.1462 2.8592 -3.3300
v  2.9105 2.8592 -4.5658
v  1.3533 2.8592 -5.3592
v  -1.6268 1.3318 -3.9065
v  -0.3728 1.3318 -4.1051
v  -2.7582 1.3318 -3.3300
v  -3.6560 1.3318 -2.4322
v  -4.2324 1.3318 -1.3009
v  -4.4311 1.3318 -0.0468
v  -4.2324 1.3318 1.2073
v  -3.6560 1.3318 2.3386
v  -2.7582 1.3318 3.2364
v  -1.6268 1.3318 3.8129
v  -0.3728 1.3318 4.0115
v  0.8813 1.3318 3.8129
v  2.0126 1.3318 3.2364
v  2.9105 1.3318 2.3386
v  3.4869 1.3318 1.2073
v  3.6855 1.3318 -0.0468
v  3.4869 1.3318 -1.3009
v  2.9105 1.3318 -2.4322
v  2.0126 1.3318 -3.3300
v  0.8813 1.3318 -3.9065
v  -1.0321 0.3511 -2.0760
v  -0.3728 0.3511 -2.1804
v  -1.6268 0.3511 -1.7729
v  -2.0989 0.3511 -1.3009
v  -2.4019 0.3511 -0.7061
v  -2.5063 0.3511 -0.0468
v  -2.4019 0.3511 0.6125
v  -2.0989 0.3511 1.2073
v  -1.6268 0.3511 1.6793
v  -1.0321 0.3511 1.9823
v  -0.3728 0.3511 2.0868
v  0.2865 0.3511 1.9823
v  0.8813 0.3511 1.6793
v  1.3533 0.3511 1.2073
v  1.6564 0.3511 0.6125
v  1.7608 0.3511 -0.0468
v  1.6564 0.3511 -0.7061
v  1.3533 0.3511 -1.3009
v  0.8813 0.3511 -1.7729
v  0.2865 0.3511 -2.0760
v  -0.3728 0.0131 -0.0468
# 182 vertices

vn 0.0000 1.0000 0.0000
vn -0.0000 0.9464 -0.3230
vn -0.0998 0.9464 -0.3072
vn -0.1899 0.9464 -0.2613
vn -0.2613 0.9464 -0.1899
vn -0.3072 0.9464 -0.0998
vn -0.3230 0.9464 0.0000
vn -0.3072 0.9464 0.0998
vn -0.2613 0.9464 0.1899
vn -0.1899 0.9464 0.2613
vn -0.0998 0.9464 0.3072
vn 0.0000 0.9464 0.3230
vn 0.0998 0.9464 0.3072
vn 0.1899 0.9464 0.2613
vn 0.2613 0.9464 0.1899
vn 0.3072 0.9464 0.0998
vn 0.3230 0.9464 -0.0000
vn 0.3072 0.9464 -0.0998
vn 0.2613 0.9464 -0.1899
vn 0.1899 0.9464 -0.2613
vn 0.0998 0.9464 -0.3072
vn -0.1847 0.8016 -0.5686
vn -0.0000 0.8016 -0.5978
vn -0.3514 0.8016 -0.4837
vn -0.4837 0.8016 -0.3514
vn -0.5686 0.8016 -0.1847
vn -0.5978 0.8016 0.0000
vn -0.5686 0.8016 0.1847
vn -0.4837 0.8016 0.3514
vn -0.3514 0.8016 0.4837
vn -0.1847 0.8016 0.5686
vn 0.0000 0.8016 0.5978
vn 0.1847 0.8016 0.5686
vn 0.3514 0.8016 0.4837
vn 0.4837 0.8016 0.3514
vn 0.5686 0.8016 0.1847
vn 0.5978 0.8016 -0.0000
vn 0.5686 0.8016 -0.1847
vn 0.4837 0.8016 -0.3514
vn 0.3514 0.8016 -0.4837
vn 0.1847 0.8016 -0.5686
vn -0.2516 0.5805 -0.7744
vn -0.0000 0.5805 -0.8143
vn -0.4786 0.5805 -0.6588
vn -0.6588 0.5805 -0.4786
vn -0.7744 0.5805 -0.2516
vn -0.8143 0.5805 0.0000
vn -0.7744 0.5805 0.2516
vn -0.6588 0.5805 0.4786
vn -0.4786 0.5805 0.6588
vn -0.2516 0.5805 0.7744
vn 0.0000 0.5805 0.8143
vn 0.2516 0.5805 0.7744
vn 0.4786 0.5805 0.6588
vn 0.6588 0.5805 0.4786
vn 0.7744 0.5805 0.2516
vn 0.8143 0.5805 -0.0000
vn 0.7744 0.5805 -0.2516
vn 0.6588 0.5805 -0.4786
vn 0.4786 0.5805 -0.6588
vn 0.2516 0.5805 -0.7744
vn -0.2943 0.3045 -0.9059
vn -0.0000 0.3045 -0.9525
vn -0.5599 0.3045 -0.7706
vn -0.7706 0.3045 -0.5599
vn -0.9059 0.3045 -0.2943
vn -0.9525 0.3045 0.0000
vn -0.9059 0.3045 0.2943
vn -0.7706 0.3045 0.5599
vn -0.5599 0.3045 0.7706
vn -0.2943 0.3045 0.9059
vn 0.0000 0.3045 0.9525
vn 0.2943 0.3045 0.9059
vn 0.5599 0.3045 0.7706
vn 0.7706 0.3045 0.5599
vn 0.9059 0.3045 0.2943
vn 0.9525 0.3045 -0.0000
vn 0.9059 0.3045 -0.2943
vn 0.7706 0.3045 -0.5599
vn 0.5599 0.3045 -0.7706
vn 0.2943 0.3045 -0.9059
vn -0.3090 -0.0000 -0.9511
vn -0.0000 -0.0000 -1.0000
vn -0.5878 -0.0000 -0.8090
vn -0.8090 -0.0000 -0.5878
vn -0.9511 -0.0000 -0.3090
vn -1.0000 -0.0000 0.0000
vn -0.9511 -0.0000 0.3090
vn -0.8090 -0.0000 0.5878
vn -0.5878 -0.0000 0.8090
vn -0.3090 -0.0000 0.9511
vn 0.0000 -0.0000 1.0000
vn 0.3090 -0.0000 0.9511
vn 0.5878 -0.0000 0.8090
vn 0.8090 -0.0000 0.5878
vn 0.9511 -0.0000 0.3090
vn 1.0000 -0.0000 -0.0000
vn 0.9511 -0.0000 -0.3090
vn 0.8090 -0.0000 -0.5878
vn 0.5878 -0.0000 -0.8090
vn 0.3090 -0.0000 -0.9511
vn -0.2943 -0.3045 -0.9059
vn -0.0000 -0.3045 -0.9525
vn -0.5599 -0.3045 -0.7706
vn -0.7706 -0.3045 -0.5599
vn -0.9059 -0.3045 -0.2943
vn -0.9525 -0.3045 0.0000
vn -0.9059 -0.3045 0.2943
vn -0.7706 -0.3045 0.5599
vn -0.5599 -0.3045 0.7706
vn -0.2943 -0.3045 0.9059
vn 0.0000 -0.3045 0.9525
vn 0.2943 -0.3045 0.9059
vn 0.5599 -0.3045 0.7706
vn 0.7706 -0.3045 0.5599
vn 0.9059 -0.3045 0.2943
vn 0.9525 -0.3045 -0.0000
vn 0.9059 -0.3045 -0.2943
vn 0.7706 -0.3045 -0.5599
vn 0.5599 -0.3045 -0.7706
vn 0.2943 -0.3045 -0.9059
vn -0.2516 -0.5805 -0.7744
vn -0.0000 -0.5805 -0.8143
vn -0.4786 -0.5805 -0.6588
vn -0.6588 -0.5805 -0.4786
vn -0.7744 -0.5805 -0.2516
vn -0.8143 -0.5805 0.0000
vn -0.7744 -0.5805 0.2516
vn -0.6588 -0.5805 0.4786
vn -0.4786 -0.5805 0.6588
vn -0.2516 -0.5805 0.7744
vn 0.0000 -0.5805 0.8143
vn 0.2516 -0.5805 0.7744
vn 0.4786 -0.5805 0.6588
vn 0.6588 -0.5805 0.4786
vn 0.7744 -0.5805 0.2516
vn 0.8143 -0.5805 -0.0000
vn 0.7744 -0.5805 -0.2516
vn 0.6588 -0.5805 -0.4786
vn 0.4786 -0.5805 -0.6588
vn 0.2516 -0.5805 -0.7744
vn -0.1847 -0.8016 -0.5686
vn -0.0000 -0.8016 -0.5978
vn -0.3514 -0.8016 -0.4837
vn -0.4837 -0.8016 -0.3514
vn -0.5686 -0.8016 -0.1847
vn -0.5978 -0.8016 0.0000
vn -0.5686 -0.8016 0.1847
vn -0.4837 -0.8016 0.3514
vn -0.3514 -0.8016 0.4837
vn -0.1847 -0.8016 0.5686
vn 0.0000 -0.8016 0.5978
vn 0.1847 -0.8016 0.5686
vn 0.3514 -0.8016 0.4837
vn 0.4837 -0.8016 0.3514
vn 0.5686 -0.8016 0.1847
vn 0.5978 -0.8016 -0.0000
vn 0.5686 -0.8016 -0.1847
vn 0.4837 -0.8016 -0.3514
vn 0.3514 -0.8016 -0.4837
vn 0.1847 -0.8016 -0.5686
vn -0.0998 -0.9464 -0.3072
vn -0.0000 -0.9464 -0.3230
vn -0.1899 -0.9464 -0.2613
vn -0.2613 -0.9464 -0.1899
vn -0.3072 -0.9464 -0.0998
vn -0.3230 -0.9464 0.0000
vn -0.3072 -0.9464 0.0998
vn -0.2613 -0.9464 0.1899
vn -0.1899 -0.9464 0.2613
vn -0.0998 -0.9464 0.3072
vn 0.0000 -0.9464 0.3230
vn 0.0998 -0.9464 0.3072
vn 0.1899 -0.9464 0.2613
vn 0.2613 -0.9464 0.1899
vn 0.3072 -0.9464 0.0998
vn 0.3230 -0.9464 -0.0000
vn 0.3072 -0.9464 -0.0998
vn 0.2613 -0.9464 -0.1899
vn 0.1899 -0.9464 -0.2613
vn 0.0998 -0.9464 -0.3072
vn -0.0000 -1.0000 0.0000
# 182 vertex normals

vt 0.0000 21.6908 0.0000
vt 0.0000 19.5217 0.0000
vt 2.1691 19.5217 0.0000
vt 2.1691 21.6908 0.0000
vt 4.3382 19.5217 0.0000
vt 4.3382 21.6908 0.0000
vt 6.5072 19.5217 0.0000
vt 6.5072 21.6908 0.0000
vt 8.6763 19.5217 0.0000
vt 8.6763 21.6908 0.0000
vt 10.8454 19.5217 0.0000
vt 10.8454 21.6908 0.0000
vt 13.0145 19.5217 0.0000
vt 13.0145 21.6908 0.0000
vt 15.1835 19.5217 0.0000
vt 15.1835 21.6908 0.0000
vt 17.3526 19.5217 0.0000
vt 17.3526 21.6908 0.0000
vt 19.5217 19.5217 0.0000
vt 19.5217 21.6908 0.0000
vt 21.6908 19.5217 0.0000
vt 21.6908 21.6908 0.0000
vt 23.8599 19.5217 0.0000
vt 23.8599 21.6908 0.0000
vt 26.0289 19.5217 0.0000
vt 26.0289 21.6908 0.0000
vt 28.1980 19.5217 0.0000
vt 28.1980 21.6908 0.0000
vt 30.3671 19.5217 0.0000
vt 30.3671 21.6908 0.0000
vt 32.5362 19.5217 0.0000
vt 32.5362 21.6908 0.0000
vt 34.7053 19.5217 0.0000
vt 34.7053 21.6908 0.0000
vt 36.8743 19.5217 0.0000
vt 36.8743 21.6908 0.0000
vt 39.0434 19.5217 0.0000
vt 39.0434 21.6908 0.0000
vt 41.2125 19.5217 0.0000
vt 41.2125 21.6908 0.0000
vt 43.3816 19.5217 0.0000
vt 2.1691 17.3526 0.0000
vt 0.0000 17.3526 0.0000
vt 4.3382 17.3526 0.0000
vt 6.5072 17.3526 0.0000
vt 8.6763 17.3526 0.0000
vt 10.8454 17.3526 0.0000
vt 13.0145 17.3526 0.0000
vt 15.1835 17.3526 0.0000
vt 17.3526 17.3526 0.0000
vt 19.5217 17.3526 0.0000
vt 21.6908 17.3526 0.0000
vt 23.8599 17.3526 0.0000
vt 26.0289 17.3526 0.0000
vt 28.1980 17.3526 0.0000
vt 30.3671 17.3526 0.0000
vt 32.5362 17.3526 0.0000
vt 34.7053 17.3526 0.0000
vt 36.8743 17.3526 0.0000
vt 39.0434 17.3526 0.0000
vt 41.2125 17.3526 0.0000
vt 43.3816 17.3526 0.0000
vt 2.1691 15.1836 0.0000
vt 0.0000 15.1836 0.0000
vt 4.3382 15.1836 0.0000
vt 6.5072 15.1836 0.0000
vt 8.6763 15.1836 0.0000
vt 10.8454 15.1836 0.0000
vt 13.0145 15.1836 0.0000
vt 15.1835 15.1836 0.0000
vt 17.3526 15.1836 0.0000
vt 19.5217 15.1836 0.0000
vt 21.6908 15.1836 0.0000
vt 23.8599 15.1836 0.0000
vt 26.0289 15.1836 0.0000
vt 28.1980 15.1836 0.0000
vt 30.3671 15.1836 0.0000
vt 32.5362 15.1836 0.0000
vt 34.7053 15.1836 0.0000
vt 36.8743 15.1836 0.0000
vt 39.0434 15.1836 0.0000
vt 41.2125 15.1836 0.0000
vt 43.3816 15.1836 0.0000
vt 2.1691 13.0145 0.0000
vt 0.0000 13.0145 0.0000
vt 4.3382 13.0145 0.0000
vt 6.5072 13.0145 0.0000
vt 8.6763 13.0145 0.0000
vt 10.8454 13.0145 0.0000
vt 13.0145 13.0145 0.0000
vt 15.1835 13.0145 0.0000
vt 17.3526 13.0145 0.0000
vt 19.5217 13.0145 0.0000
vt 21.6908 13.0145 0.0000
vt 23.8599 13.0145 0.0000
vt 26.0289 13.0145 0.0000
vt 28.1980 13.0145 0.0000
vt 30.3671 13.0145 0.0000
vt 32.5362 13.0145 0.0000
vt 34.7053 13.0145 0.0000
vt 36.8743 13.0145 0.0000
vt 39.0434 13.0145 0.0000
vt 41.2125 13.0145 0.0000
vt 43.3816 13.0145 0.0000
vt 2.1691 10.8454 0.0000
vt 0.0000 10.8454 0.0000
vt 4.3382 10.8454 0.0000
vt 6.5072 10.8454 0.0000
vt 8.6763 10.8454 0.0000
vt 10.8454 10.8454 0.0000
vt 13.0145 10.8454 0.0000
vt 15.1835 10.8454 0.0000
vt 17.3526 10.8454 0.0000
vt 19.5217 10.8454 0.0000
vt 21.6908 10.8454 0.0000
vt 23.8599 10.8454 0.0000
vt 26.0289 10.8454 0.0000
vt 28.1980 10.8454 0.0000
vt 30.3671 10.8454 0.0000
vt 32.5362 10.8454 0.0000
vt 34.7053 10.8454 0.0000
vt 36.8743 10.8454 0.0000
vt 39.0434 10.8454 0.0000
vt 41.2125 10.8454 0.0000
vt 43.3816 10.8454 0.0000
vt 2.1691 8.6763 0.0000
vt 0.0000 8.6763 0.0000
vt 4.3382 8.6763 0.0000
vt 6.5072 8.6763 0.0000
vt 8.6763 8.6763 0.0000
vt 10.8454 8.6763 0.0000
vt 13.0145 8.6763 0.0000
vt 15.1835 8.6763 0.0000
vt 17.3526 8.6763 0.0000
vt 19.5217 8.6763 0.0000
vt 21.6908 8.6763 0.0000
vt 23.8599 8.6763 0.0000
vt 26.0289 8.6763 0.0000
vt 28.1980 8.6763 0.0000
vt 30.3671 8.6763 0.0000
vt 32.5362 8.6763 0.0000
vt 34.7053 8.6763 0.0000
vt 36.8743 8.6763 0.0000
vt 39.0434 8.6763 0.0000
vt 41.2125 8.6763 0.0000
vt 43.3816 8.6763 0.0000
vt 2.1691 6.5072 0.0000
vt 0.0000 6.5072 0.0000
vt 4.3382 6.5072 0.0000
vt 6.5072 6.5072 0.0000
vt 8.6763 6.5072 0.0000
vt 10.8454 6.5072 0.0000
vt 13.0145 6.5072 0.0000
vt 15.1835 6.5072 0.0000
vt 17.3526 6.5072 0.0000
vt 19.5217 6.5072 0.0000
vt 21.6908 6.5072 0.0000
vt 23.8599 6.5072 0.0000
vt 26.0289 6.5072 0.0000
vt 28.1980 6.5072 0.0000
vt 30.3671 6.5072 0.0000
vt 32.5362 6.5072 0.0000
vt 34.7053 6.5072 0.0000
vt 36.8743 6.5072 0.0000
vt 39.0434 6.5072 0.0000
vt 41.2125 6.5072 0.0000
vt 43.3816 6.5072 0.0000
vt 2.1691 4.3382 0.0000
vt 0.0000 4.3382 0.0000
vt 4.3382 4.3382 0.0000
vt 6.5072 4.3382 0.0000
vt 8.6763 4.3382 0.0000
vt 10.8454 4.3382 0.0000
vt 13.0145 4.3382 0.0000
vt 15.1835 4.3382 0.0000
vt 17.3526 4.3382 0.0000
vt 19.5217 4.3382 0.0000
vt 21.6908 4.3382 0.0000
vt 23.8599 4.3382 0.0000
vt 26.0289 4.3382 0.0000
vt 28.1980 4.3382 0.0000
vt 30.3671 4.3382 0.0000
vt 32.5362 4.3382 0.0000
vt 34.7053 4.3382 0.0000
vt 36.8743 4.3382 0.0000
vt 39.0434 4.3382 0.0000
vt 41.2125 4.3382 0.0000
vt 43.3816 4.3382 0.0000
vt 2.1691 2.1691 0.0000
vt 0.0000 2.1691 0.0000
vt 4.3382 2.1691 0.0000
vt 6.5072 2.1691 0.0000
vt 8.6763 2.1691 0.0000
vt 10.8454 2.1691 0.0000
vt 13.0145 2.1691 0.0000
vt 15.1835 2.1691 0.0000
vt 17.3526 2.1691 0.0000
vt 19.5217 2.1691 0.0000
vt 21.6908 2.1691 0.0000
vt 23.8599 2.1691 0.0000
vt 26.0289 2.1691 0.0000
vt 28.1980 2.1691 0.0000
vt 30.3671 2.1691 0.0000
vt 32.5362 2.1691 0.0000
vt 34.7053 2.1691 0.0000
vt 36.8743 2.1691 0.0000
vt 39.0434 2.1691 0.0000
vt 41.2125 2.1691 0.0000
vt 43.3816 2.1691 0.0000
vt 0.0000 -0.0000 0.0000
vt 2.1691 -0.0000 0.0000
vt 4.3382 -0.0000 0.0000
vt 6.5072 -0.0000 0.0000
vt 8.6763 -0.0000 0.0000
vt 10.8454 -0.0000 0.0000
vt 13.0145 -0.0000 0.0000
vt 15.1835 -0.0000 0.0000
vt 17.3526 -0.0000 0.0000
vt 19.5217 -0.0000 0.0000
vt 21.6908 -0.0000 0.0000
vt 23.8599 -0.0000 0.0000
vt 26.0289 -0.0000 0.0000
vt 28.1980 -0.0000 0.0000
vt 30.3671 -0.0000 0.0000
vt 32.5362 -0.0000 0.0000
vt 34.7053 -0.0000 0.0000
vt 36.8743 -0.0000 0.0000
vt 39.0434 -0.0000 0.0000
vt 41.2125 -0.0000 0.0000
# 229 texture coords

g Sphere001
usemtl wire_227153153
s 1
f 1/1/1 2/2/2 3/3/3 
f 1/4/1 3/3/3 4/5/4 
f 1/6/1 4/5/4 5/7/5 
f 1/8/1 5/7/5 6/9/6 
f 1/10/1 6/9/6 7/11/7 
f 1/12/1 7/11/7 8/13/8 
f 1/14/1 8/13/8 9/15/9 
f 1/16/1 9/15/9 10/17/10 
f 1/18/1 10/17/10 11/19/11 
f 1/20/1 11/19/11 12/21/12 
f 1/22/1 12/21/12 13/23/13 
f 1/24/1 13/23/13 14/25/14 
f 1/26/1 14/25/14 15/27/15 
f 1/28/1 15/27/15 16/29/16 
f 1/30/1 16/29/16 17/31/17 
f 1/32/1 17/31/17 18/33/18 
f 1/34/1 18/33/18 19/35/19 
f 1/36/1 19/35/19 20/37/20 
f 1/38/1 20/37/20 21/39/21 
f 1/40/1 21/39/21 2/41/2 
f 22/42/22 3/3/3 2/2/2 23/43/23 
f 24/44/24 4/5/4 3/3/3 22/42/22 
f 25/45/25 5/7/5 4/5/4 24/44/24 
f 26/46/26 6/9/6 5/7/5 25/45/25 
f 27/47/27 7/11/7 6/9/6 26/46/26 
f 28/48/28 8/13/8 7/11/7 27/47/27 
f 29/49/29 9/15/9 8/13/8 28/48/28 
f 30/50/30 10/17/10 9/15/9 29/49/29 
f 31/51/31 11/19/11 10/17/10 30/50/30 
f 32/52/32 12/21/12 11/19/11 31/51/31 
f 33/53/33 13/23/13 12/21/12 32/52/32 
f 34/54/34 14/25/14 13/23/13 33/53/33 
f 35/55/35 15/27/15 14/25/14 34/54/34 
f 36/56/36 16/29/16 15/27/15 35/55/35 
f 37/57/37 17/31/17 16/29/16 36/56/36 
f 38/58/38 18/33/18 17/31/17 37/57/37 
f 39/59/39 19/35/19 18/33/18 38/58/38 
f 40/60/40 20/37/20 19/35/19 39/59/39 
f 41/61/41 21/39/21 20/37/20 40/60/40 
f 23/62/23 2/41/2 21/39/21 41/61/41 
f 42/63/42 22/42/22 23/43/23 43/64/43 
f 44/65/44 24/44/24 22/42/22 42/63/42 
f 45/66/45 25/45/25 24/44/24 44/65/44 
f 46/67/46 26/46/26 25/45/25 45/66/45 
f 47/68/47 27/47/27 26/46/26 46/67/46 
f 48/69/48 28/48/28 27/47/27 47/68/47 
f 49/70/49 29/49/29 28/48/28 48/69/48 
f 50/71/50 30/50/30 29/49/29 49/70/49 
f 51/72/51 31/51/31 30/50/30 50/71/50 
f 52/73/52 32/52/32 31/51/31 51/72/51 
f 53/74/53 33/53/33 32/52/32 52/73/52 
f 54/75/54 34/54/34 33/53/33 53/74/53 
f 55/76/55 35/55/35 34/54/34 54/75/54 
f 56/77/56 36/56/36 35/55/35 55/76/55 
f 57/78/57 37/57/37 36/56/36 56/77/56 
f 58/79/58 38/58/38 37/57/37 57/78/57 
f 59/80/59 39/59/39 38/58/38 58/79/58 
f 60/81/60 40/60/40 39/59/39 59/80/59 
f 61/82/61 41/61/41 40/60/40 60/81/60 
f 43/83/43 23/62/23 41/61/41 61/82/61 
f 62/84/62 42/63/42 43/64/43 63/85/63 
f 64/86/64 44/65/44 42/63/42 62/84/62 
f 65/87/65 45/66/45 44/65/44 64/86/64 
f 66/88/66 46/67/46 45/66/45 65/87/65 
f 67/89/67 47/68/47 46/67/46 66/88/66 
f 68/90/68 48/69/48 47/68/47 67/89/67 
f 69/91/69 49/70/49 48/69/48 68/90/68 
f 70/92/70 50/71/50 49/70/49 69/91/69 
f 71/93/71 51/72/51 50/71/50 70/92/70 
f 72/94/72 52/73/52 51/72/51 71/93/71 
f 73/95/73 53/74/53 52/73/52 72/94/72 
f 74/96/74 54/75/54 53/74/53 73/95/73 
f 75/97/75 55/76/55 54/75/54 74/96/74 
f 76/98/76 56/77/56 55/76/55 75/97/75 
f 77/99/77 57/78/57 56/77/56 76/98/76 
f 78/100/78 58/79/58 57/78/57 77/99/77 
f 79/101/79 59/80/59 58/79/58 78/100/78 
f 80/102/80 60/81/60 59/80/59 79/101/79 
f 81/103/81 61/82/61 60/81/60 80/102/80 
f 63/104/63 43/83/43 61/82/61 81/103/81 
f 82/105/82 62/84/62 63/85/63 83/106/83 
f 84/107/84 64/86/64 62/84/62 82/105/82 
f 85/108/85 65/87/65 64/86/64 84/107/84 
f 86/109/86 66/88/66 65/87/65 85/108/85 
f 87/110/87 67/89/67 66/88/66 86/109/86 
f 88/111/88 68/90/68 67/89/67 87/110/87 
f 89/112/89 69/91/69 68/90/68 88/111/88 
f 90/113/90 70/92/70 69/91/69 89/112/89 
f 91/114/91 71/93/71 70/92/70 90/113/90 
f 92/115/92 72/94/72 71/93/71 91/114/91 
f 93/116/93 73/95/73 72/94/72 92/115/92 
f 94/117/94 74/96/74 73/95/73 93/116/93 
f 95/118/95 75/97/75 74/96/74 94/117/94 
f 96/119/96 76/98/76 75/97/75 95/118/95 
f 97/120/97 77/99/77 76/98/76 96/119/96 
f 98/121/98 78/100/78 77/99/77 97/120/97 
f 99/122/99 79/101/79 78/100/78 98/121/98 
f 100/123/100 80/102/80 79/101/79 99/122/99 
f 101/124/101 81/103/81 80/102/80 100/123/100 
f 83/125/83 63/104/63 81/103/81 101/124/101 
f 102/126/102 82/105/82 83/106/83 103/127/103 
f 104/128/104 84/107/84 82/105/82 102/126/102 
f 105/129/105 85/108/85 84/107/84 104/128/104 
f 106/130/106 86/109/86 85/108/85 105/129/105 
f 107/131/107 87/110/87 86/109/86 106/130/106 
f 108/132/108 88/111/88 87/110/87 107/131/107 
f 109/133/109 89/112/89 88/111/88 108/132/108 
f 110/134/110 90/113/90 89/112/89 109/133/109 
f 111/135/111 91/114/91 90/113/90 110/134/110 
f 112/136/112 92/115/92 91/114/91 111/135/111 
f 113/137/113 93/116/93 92/115/92 112/136/112 
f 114/138/114 94/117/94 93/116/93 113/137/113 
f 115/139/115 95/118/95 94/117/94 114/138/114 
f 116/140/116 96/119/96 95/118/95 115/139/115 
f 117/141/117 97/120/97 96/119/96 116/140/116 
f 118/142/118 98/121/98 97/120/97 117/141/117 
f 119/143/119 99/122/99 98/121/98 118/142/118 
f 120/144/120 100/123/100 99/122/99 119/143/119 
f 121/145/121 101/124/101 100/123/100 120/144/120 
f 103/146/103 83/125/83 101/124/101 121/145/121 
f 122/147/122 102/126/102 103/127/103 123/148/123 
f 124/149/124 104/128/104 102/126/102 122/147/122 
f 125/150/125 105/129/105 104/128/104 124/149/124 
f 126/151/126 106/130/106 105/129/105 125/150/125 
f 127/152/127 107/131/107 106/130/106 126/151/126 
f 128/153/128 108/132/108 107/131/107 127/152/127 
f 129/154/129 109/133/109 108/132/108 128/153/128 
f 130/155/130 110/134/110 109/133/109 129/154/129 
f 131/156/131 111/135/111 110/134/110 130/155/130 
f 132/157/132 112/136/112 111/135/111 131/156/131 
f 133/158/133 113/137/113 112/136/112 132/157/132 
f 134/159/134 114/138/114 113/137/113 133/158/133 
f 135/160/135 115/139/115 114/138/114 134/159/134 
f 136/161/136 116/140/116 115/139/115 135/160/135 
f 137/162/137 117/141/117 116/140/116 136/161/136 
f 138/163/138 118/142/118 117/141/117 137/162/137 
f 139/164/139 119/143/119 118/142/118 138/163/138 
f 140/165/140 120/144/120 119/143/119 139/164/139 
f 141/166/141 121/145/121 120/144/120 140/165/140 
f 123/167/123 103/146/103 121/145/121 141/166/141 
f 142/168/142 122/147/122 123/148/123 143/169/143 
f 144/170/144 124/149/124 122/147/122 142/168/142 
f 145/171/145 125/150/125 124/149/124 144/170/144 
f 146/172/146 126/151/126 125/150/125 145/171/145 
f 147/173/147 127/152/127 126/151/126 146/172/146 
f 148/174/148 128/153/128 127/152/127 147/173/147 
f 149/175/149 129/154/129 128/153/128 148/174/148 
f 150/176/150 130/155/130 129/154/129 149/175/149 
f 151/177/151 131/156/131 130/155/130 150/176/150 
f 152/178/152 132/157/132 131/156/131 151/177/151 
f 153/179/153 133/158/133 132/157/132 152/178/152 
f 154/180/154 134/159/134 133/158/133 153/179/153 
f 155/181/155 135/160/135 134/159/134 154/180/154 
f 156/182/156 136/161/136 135/160/135 155/181/155 
f 157/183/157 137/162/137 136/161/136 156/182/156 
f 158/184/158 138/163/138 137/162/137 157/183/157 
f 159/185/159 139/164/139 138/163/138 158/184/158 
f 160/186/160 140/165/140 139/164/139 159/185/159 
f 161/187/161 141/166/141 140/165/140 160/186/160 
f 143/188/143 123/167/123 141/166/141 161/187/161 
f 162/189/162 142/168/142 143/169/143 163/190/163 
f 164/191/164 144/170/144 142/168/142 162/189/162 
f 165/192/165 145/171/145 144/170/144 164/191/164 
f 166/193/166 146/172/146 145/171/145 165/192/165 
f 167/194/167 147/173/147 146/172/146 166/193/166 
f 168/195/168 148/174/148 147/173/147 167/194/167 
f 169/196/169 149/175/149 148/174/148 168/195/168 
f 170/197/170 150/176/150 149/175/149 169/196/169 
f 171/198/171 151/177/151 150/176/150 170/197/170 
f 172/199/172 152/178/152 151/177/151 171/198/171 
f 173/200/173 153/179/153 152/178/152 172/199/172 
f 174/201/174 154/180/154 153/179/153 173/200/173 
f 175/202/175 155/181/155 154/180/154 174/201/174 
f 176/203/176 156/182/156 155/181/155 175/202/175 
f 177/204/177 157/183/157 156/182/156 176/203/176 
f 178/205/178 158/184/158 157/183/157 177/204/177 
f 179/206/179 159/185/159 158/184/158 178/205/178 
f 180/207/180 160/186/160 159/185/159 179/206/179 
f 181/208/181 161/187/161 160/186/160 180/207/180 
f 163/209/163 143/188/143 161/187/161 181/208/181 
f 182/210/182 162/189/162 163/190/163 
f 182/211/182 164/191/164 162/189/162 
f 182/212/182 165/192/165 164/191/164 
f 182/213/182 166/193/166 165/192/165 
f 182/214/182 167/194/167 166/193/166 
f 182/215/182 168/195/168 167/194/167 
f 182/216/182 169/196/169 168/195/168 
f 182/217/182 170/197/170 169/196/169 
f 182/218/182 171/198/171 170/197/170 
f 182/219/182 172/199/172 171/198/171 
f 182/220/182 173/200/173 172/199/172 
f 182/221/182 174/201/174 173/200/173 
f 182/222/182 175/202/175 174/201/174 
f 182/223/182 176/203/176 175/202/175 
f 182/224/182 177/204/177 176/203/176 
f 182/225/182 178/205/178 177/204/177 
f 182/226/182 179/206/179 178/205/178 
f 182/227/182 180/207/180 179/206/179 
f 182/228/182 181/208/181 180/207/180 
f 182/229/182 163/209/163 181/208/181 
# 160 polygons - 40 triangles

