# 3ds Max Wavefront OBJ Exporter v0.97b - (c)2007 guruware
# File Created: 04.05.2015 07:48:19

mtllib asteroid_mindre.mtl

#
# object GeoSphere001
#

v  0.0091 2.2968 -0.0041
v  0.7658 2.2094 -0.0313
v  0.2931 2.2042 -0.3367
v  1.3399 1.9538 -0.0313
v  0.8237 2.0518 -0.4935
v  0.3969 1.8832 -0.6067
v  1.9296 1.5494 -0.0313
v  1.4117 1.7005 -0.6380
v  1.0095 1.6961 -0.9374
v  0.5885 1.5334 -1.0553
v  2.0469 1.0272 -0.0313
v  1.8820 1.4344 -0.6282
v  1.5732 1.2673 -1.1739
v  1.2595 1.1580 -1.4386
v  0.6623 0.9776 -1.3654
v  -0.5056 2.3015 -0.2459
v  -0.3216 2.0431 -0.3675
v  -0.9836 1.9990 -0.4893
v  -0.1463 1.6844 -0.6373
v  -0.7976 1.6882 -0.6506
v  -1.3788 1.6439 -0.7086
v  0.0212 1.1878 -1.0674
v  -0.6472 1.3802 -0.9103
v  -1.3496 1.3628 -1.0066
v  -1.7392 1.0200 -1.0308
v  -0.4090 2.3469 0.3376
v  -0.9781 2.0543 -0.0302
v  -0.7310 2.0137 0.6719
v  -1.5120 1.7003 -0.3626
v  -1.4137 1.7005 0.3110
v  -1.2203 1.5490 0.9488
v  -1.9458 1.1414 -0.7161
v  -1.9424 1.1875 0.3855
v  -1.6483 1.1601 0.8251
v  -1.5847 0.9557 1.2794
v  0.3013 2.3094 0.5666
v  -0.0762 2.0599 0.9357
v  0.9695 1.9494 1.1459
v  -0.4483 1.6538 1.3006
v  0.2435 1.6999 1.3756
v  1.3663 1.5755 1.4369
v  -0.9172 1.2582 1.6035
v  -0.0781 1.1878 1.5632
v  0.5868 1.2611 1.4953
v  0.9472 1.2863 1.5096
v  0.9599 2.0527 0.5953
v  1.2972 1.7007 1.1008
v  1.3958 1.7009 0.5719
v  1.5643 1.1930 1.3752
v  1.7702 1.3502 1.0928
v  2.0367 1.1615 0.5656
v  2.2048 0.5656 0.3376
v  2.1391 0.7757 -0.3405
v  2.2691 0.0625 0.7027
v  2.2549 0.1193 -0.0135
v  2.1499 0.2933 -0.6737
v  2.0455 -0.3982 1.0311
v  2.0772 -0.2753 0.4100
v  2.0387 -0.2628 -0.3179
v  1.8470 -0.0858 -0.8973
v  1.7135 -0.6685 1.1970
v  1.7014 -0.8088 0.8241
v  1.6212 -0.7245 0.1729
v  1.5586 -0.6785 -0.5609
v  1.5188 -0.6559 -1.2207
v  0.9959 0.5593 -1.7412
v  0.5185 0.5682 -1.7602
v  1.3373 0.0031 -1.8861
v  0.5836 -0.0024 -2.0694
v  -0.0793 0.0381 -2.1527
v  1.6299 -0.3814 -1.5316
v  0.9306 -0.5775 -1.9093
v  0.2372 -0.5860 -2.2218
v  0.0912 -0.5417 -2.2644
v  1.0384 -1.0207 -1.6190
v  0.5589 -1.2046 -1.8882
v  -0.0566 -1.1615 -2.0134
v  -0.6809 -1.0057 -1.9975
v  -1.5625 0.9012 -1.2587
v  -1.9377 0.6186 -0.9784
v  -1.4432 0.1389 -1.7841
v  -1.8367 0.1157 -1.3366
v  -2.1202 0.2033 -0.5716
v  -1.1433 -0.4947 -2.0312
v  -1.6238 -0.5148 -1.5171
v  -1.8900 -0.3330 -0.9571
v  -1.9320 -0.1756 -0.4671
v  -1.1879 -1.1550 -1.5946
v  -1.5823 -1.0973 -1.0622
v  -1.7998 -0.9004 -0.5635
v  -1.9227 -0.6657 0.0473
v  -1.9475 0.6253 0.9746
v  -1.5122 0.5514 1.6158
v  -2.0530 0.2627 0.6838
v  -1.8289 0.1195 1.3413
v  -1.1925 0.0575 1.7420
v  -2.0042 -0.1756 0.2885
v  -1.8579 -0.3339 1.0027
v  -1.5430 -0.5082 1.5432
v  -1.1202 -0.4855 1.8729
v  -1.7887 -0.8995 0.6104
v  -1.5331 -1.0993 1.1161
v  -1.1510 -1.1450 1.5833
v  -0.6055 -0.8579 1.7845
v  0.4694 0.7004 1.5538
v  1.1876 1.0049 1.4958
v  0.0639 0.1684 1.6483
v  0.7970 0.1604 1.4910
v  1.4405 0.1540 1.3307
v  -0.2637 -0.4055 1.7317
v  0.4317 -0.4629 1.6889
v  1.1038 -0.4747 1.4918
v  1.6069 -0.3408 1.3088
v  0.0222 -1.1039 1.8019
v  0.6322 -1.0877 1.7335
v  1.1656 -0.9796 1.5141
v  1.8502 0.0829 -1.3813
v  1.4028 0.5573 -1.3949
v  1.9247 0.6715 -1.0562
v  -0.8968 -0.0022 -2.0777
v  -1.0862 0.5775 -1.5205
v  -0.4419 0.5756 -1.6233
v  -2.1123 0.2558 -0.1501
v  -2.1468 0.7105 0.3257
v  -2.1206 0.7101 -0.4085
v  -0.6716 0.1243 1.7725
v  -0.1989 0.6995 1.7459
v  -0.9578 0.6633 1.7980
v  1.8706 0.0241 1.1722
v  1.9692 0.5862 0.9471
v  1.6181 0.6300 1.2592
v  -0.3992 -2.0568 -0.0400
v  -0.3539 -2.1265 -0.5606
v  0.2474 -1.8645 -0.1979
v  -0.4467 -1.9530 -1.1416
v  0.0540 -1.9183 -0.9399
v  0.7797 -1.6218 -0.5128
v  -0.5217 -1.5494 -1.6376
v  0.1455 -1.6996 -1.5795
v  0.7888 -1.5675 -1.2805
v  1.0200 -1.2149 -0.9156
v  -0.6624 -2.1945 0.0168
v  -1.2700 -1.8658 0.1555
v  -0.9181 -2.0479 -0.4791
v  -1.6172 -1.2885 0.0545
v  -1.4853 -1.5732 -0.4081
v  -1.1151 -1.6932 -1.0150
v  -0.2802 -2.0720 0.6137
v  -0.3939 -1.8858 1.1513
v  -0.8336 -2.0469 0.5695
v  -0.5288 -1.5420 1.5848
v  -1.0147 -1.6905 1.1224
v  -1.3932 -1.5729 0.6348
v  0.1405 -1.8567 0.5546
v  0.6352 -1.4708 0.9959
v  0.1387 -1.7323 1.1476
v  1.1729 -1.1882 1.1759
v  0.6782 -1.3547 1.4798
v  0.1068 -1.5581 1.5981
v  0.5033 -1.5713 0.2853
v  0.9945 -1.2176 -0.1539
v  1.1515 -1.2176 0.6285
# 162 vertices

vn 0.0871 0.9888 -0.1215
vn 0.2887 0.9521 -0.1008
vn 0.0268 0.8515 -0.5236
vn 0.5119 0.8585 -0.0302
vn 0.1866 0.8543 -0.4852
vn -0.1359 0.6799 -0.7206
vn 0.7897 0.6134 0.0126
vn 0.4386 0.8094 -0.3905
vn 0.1330 0.7674 -0.6272
vn -0.1922 0.6180 -0.7623
vn 0.9567 0.2890 -0.0340
vn 0.7510 0.5740 -0.3263
vn 0.5477 0.4958 -0.6739
vn 0.2573 0.4463 -0.8571
vn -0.1704 0.5759 -0.7996
vn -0.1541 0.8787 -0.4518
vn -0.0111 0.5099 -0.8602
vn -0.2486 0.7822 -0.5712
vn -0.1049 0.6181 -0.7790
vn 0.0591 0.5991 -0.7985
vn -0.3628 0.7328 -0.5756
vn -0.1290 0.6266 -0.7686
vn 0.0314 0.6442 -0.7642
vn -0.1936 0.6365 -0.7466
vn -0.6204 0.4453 -0.6456
vn -0.2382 0.9502 0.2011
vn -0.5232 0.8503 0.0566
vn -0.4227 0.7958 0.4337
vn -0.6432 0.7556 -0.1237
vn -0.6112 0.7567 0.2320
vn -0.5389 0.7102 0.4531
vn -0.8107 0.4750 -0.3422
vn -0.8120 0.5128 0.2788
vn -0.7160 0.5773 0.3926
vn -0.6806 0.5075 0.5285
vn 0.1001 0.9636 0.2479
vn -0.1443 0.8017 0.5801
vn 0.2956 0.8309 0.4713
vn -0.1807 0.6781 0.7124
vn -0.0446 0.5496 0.8343
vn 0.5623 0.4763 0.6760
vn -0.2475 0.5543 0.7947
vn 0.0299 0.3751 0.9265
vn 0.0238 0.2071 0.9780
vn 0.0376 0.1659 0.9854
vn 0.4723 0.8676 0.1554
vn 0.6417 0.7466 0.1754
vn 0.6091 0.7681 0.1975
vn 0.5920 0.1303 0.7954
vn 0.7430 0.4934 0.4522
vn 0.8890 0.4047 0.2142
vn 0.9707 0.2176 0.1020
vn 0.9602 0.2445 -0.1349
vn 0.9624 -0.0618 0.2646
vn 0.9823 -0.1628 -0.0929
vn 0.9505 -0.0886 -0.2979
vn 0.8192 -0.3562 0.4494
vn 0.8258 -0.5591 -0.0743
vn 0.8084 -0.5466 -0.2186
vn 0.8387 -0.4927 -0.2319
vn 0.6619 -0.4581 0.5933
vn 0.6942 -0.7196 0.0139
vn 0.6798 -0.7228 -0.1245
vn 0.7357 -0.6667 -0.1196
vn 0.7885 -0.5959 -0.1524
vn 0.2445 0.4817 -0.8415
vn -0.0030 0.6201 -0.7846
vn 0.4955 0.1146 -0.8610
vn 0.2121 0.2344 -0.9487
vn -0.0143 0.4120 -0.9111
vn 0.7768 -0.3951 -0.4904
vn 0.4422 -0.2482 -0.8619
vn 0.2666 -0.1360 -0.9542
vn 0.1000 -0.0492 -0.9938
vn 0.6630 -0.5394 -0.5191
vn 0.3723 -0.5143 -0.7726
vn -0.0099 -0.5010 -0.8654
vn -0.2765 -0.4408 -0.8539
vn -0.4330 0.4665 -0.7713
vn -0.8520 0.1945 -0.4861
vn -0.5424 0.2878 -0.7893
vn -0.8513 0.0435 -0.5229
vn -0.9791 -0.1599 -0.1259
vn -0.4789 -0.1728 -0.8607
vn -0.8029 -0.2581 -0.5374
vn -0.9410 -0.2508 -0.2271
vn -0.9557 -0.2933 -0.0255
vn -0.5781 -0.5393 -0.6123
vn -0.8108 -0.4653 -0.3550
vn -0.9306 -0.3420 -0.1304
vn -0.9614 -0.2749 -0.0072
vn -0.8748 0.2800 0.3954
vn -0.5750 0.1850 0.7970
vn -0.9723 -0.1017 0.2106
vn -0.8167 -0.0384 0.5758
vn -0.3337 0.0496 0.9414
vn -0.9761 -0.2104 0.0541
vn -0.9232 -0.2480 0.2935
vn -0.7259 -0.2004 0.6580
vn -0.2777 -0.0782 0.9575
vn -0.9108 -0.3757 0.1711
vn -0.7901 -0.4626 0.4022
vn -0.4809 -0.4700 0.7401
vn -0.0399 -0.1628 0.9858
vn 0.1854 0.0068 0.9826
vn 0.2344 -0.0039 0.9721
vn 0.1854 0.0333 0.9821
vn 0.2168 0.0453 0.9752
vn 0.3229 0.0171 0.9463
vn 0.1053 0.0747 0.9916
vn 0.1766 0.1387 0.9745
vn 0.3025 0.1064 0.9472
vn 0.4372 -0.0105 0.8993
vn 0.0269 -0.1603 0.9867
vn 0.2961 -0.2435 0.9236
vn 0.5215 -0.3688 0.7694
vn 0.8409 -0.0075 -0.5411
vn 0.5685 0.3058 -0.7638
vn 0.7789 0.2417 -0.5787
vn -0.2303 0.3513 -0.9075
vn -0.0988 0.6073 -0.7883
vn -0.0930 0.6688 -0.7376
vn -0.9832 -0.1826 0.0038
vn -0.9718 0.1826 0.1492
vn -0.9773 0.1710 -0.1250
vn 0.0731 0.0181 0.9972
vn 0.1399 0.1193 0.9830
vn -0.1344 0.1608 0.9778
vn 0.5855 0.0681 0.8078
vn 0.8084 0.1626 0.5658
vn 0.5555 0.0062 0.8315
vn 0.4083 -0.9114 0.0507
vn 0.1430 -0.9828 -0.1164
vn 0.4360 -0.8963 0.0806
vn -0.1280 -0.8917 -0.4342
vn 0.3101 -0.9329 -0.1831
vn 0.6645 -0.7442 0.0686
vn -0.2603 -0.6858 -0.6796
vn 0.1607 -0.8043 -0.5721
vn 0.6226 -0.7341 -0.2712
vn 0.7973 -0.6012 -0.0537
vn -0.0532 -0.9984 0.0200
vn -0.6773 -0.7314 0.0794
vn -0.4269 -0.8787 -0.2135
vn -0.8817 -0.4699 0.0434
vn -0.7953 -0.5915 -0.1328
vn -0.5633 -0.7111 -0.4208
vn 0.2368 -0.9583 0.1599
vn -0.0236 -0.8869 0.4614
vn -0.3419 -0.8974 0.2788
vn -0.1917 -0.5941 0.7812
vn -0.4964 -0.7276 0.4735
vn -0.7541 -0.6114 0.2399
vn 0.5068 -0.8586 0.0768
vn 0.4867 -0.8671 0.1064
vn 0.3871 -0.8782 0.2808
vn 0.5523 -0.7999 0.2348
vn 0.4353 -0.7653 0.4742
vn 0.1789 -0.6995 0.6918
vn 0.5931 -0.8014 0.0777
vn 0.6984 -0.7156 0.0160
vn 0.5577 -0.8286 -0.0494
# 162 vertex normals

vt 0.6000 1.0000 19.2374
vt 0.5000 0.9119 19.2374
vt 0.7000 0.9119 19.2374
vt 0.5000 0.8238 19.2374
vt 0.6000 0.8524 19.2374
vt 0.7000 0.8238 19.2374
vt 0.5000 0.7357 19.2374
vt 0.5644 0.7654 19.2374
vt 0.6356 0.7654 19.2374
vt 0.7000 0.7357 19.2374
vt 0.5000 0.6476 19.2374
vt 0.5487 0.6688 19.2374
vt 0.6000 0.6762 19.2374
vt 0.6513 0.6688 19.2374
vt 0.7000 0.6476 19.2374
vt 0.8000 1.0000 19.2374
vt 0.9000 0.9119 19.2374
vt 0.8000 0.8524 19.2374
vt 0.9000 0.8238 19.2374
vt 0.7644 0.7654 19.2374
vt 0.8356 0.7654 19.2374
vt 0.9000 0.7357 19.2374
vt 0.7487 0.6688 19.2374
vt 0.8000 0.6762 19.2374
vt 0.8513 0.6688 19.2374
vt 0.9000 0.6476 19.2374
vt 0.0000 1.0000 19.2374
vt -0.1000 0.9119 19.2374
vt 0.1000 0.9119 19.2374
vt -0.1000 0.8238 19.2374
vt 0.0000 0.8524 19.2374
vt 0.1000 0.8238 19.2374
vt 0.9644 0.7654 19.2374
vt -0.0356 0.7654 19.2374
vt 0.0356 0.7654 19.2374
vt 0.1000 0.7357 19.2374
vt 0.9487 0.6688 19.2374
vt -0.0513 0.6688 19.2374
vt 0.0000 0.6762 19.2374
vt 0.0513 0.6688 19.2374
vt 0.1000 0.6476 19.2374
vt 0.2000 1.0000 19.2374
vt 0.3000 0.9119 19.2374
vt 0.2000 0.8524 19.2374
vt 0.3000 0.8238 19.2374
vt 0.1644 0.7654 19.2374
vt 0.2356 0.7654 19.2374
vt 0.3000 0.7357 19.2374
vt 0.1487 0.6688 19.2374
vt 0.2000 0.6762 19.2374
vt 0.2513 0.6688 19.2374
vt 0.3000 0.6476 19.2374
vt 0.4000 1.0000 19.2374
vt 0.4000 0.8524 19.2374
vt 0.3644 0.7654 19.2374
vt 0.4356 0.7654 19.2374
vt 0.3487 0.6688 19.2374
vt 0.4000 0.6762 19.2374
vt 0.4513 0.6688 19.2374
vt 0.4736 0.5747 19.2374
vt 0.5264 0.5747 19.2374
vt 0.4500 0.5000 19.2374
vt 0.5000 0.5000 19.2374
vt 0.5500 0.5000 19.2374
vt 0.4264 0.4253 19.2374
vt 0.4754 0.4179 19.2374
vt 0.5246 0.4179 19.2374
vt 0.5736 0.4253 19.2374
vt 0.4000 0.3524 19.2374
vt 0.4487 0.3312 19.2374
vt 0.5000 0.3238 19.2374
vt 0.5513 0.3312 19.2374
vt 0.6000 0.3524 19.2374
vt 0.6736 0.5747 19.2374
vt 0.7264 0.5747 19.2374
vt 0.6500 0.5000 19.2374
vt 0.7000 0.5000 19.2374
vt 0.7500 0.5000 19.2374
vt 0.6264 0.4253 19.2374
vt 0.6754 0.4179 19.2374
vt 0.7246 0.4179 19.2374
vt 0.7736 0.4253 19.2374
vt 0.6487 0.3312 19.2374
vt 0.7000 0.3238 19.2374
vt 0.7513 0.3312 19.2374
vt 0.8000 0.3524 19.2374
vt 0.8736 0.5747 19.2374
vt 0.9264 0.5747 19.2374
vt 0.8500 0.5000 19.2374
vt 0.9000 0.5000 19.2374
vt 0.9500 0.5000 19.2374
vt 0.8264 0.4253 19.2374
vt 0.8754 0.4179 19.2374
vt 0.9246 0.4179 19.2374
vt 0.9736 0.4253 19.2374
vt 0.8487 0.3312 19.2374
vt 0.9000 0.3238 19.2374
vt 0.9513 0.3312 19.2374
vt -0.0264 0.4253 19.2374
vt -0.0487 0.3312 19.2374
vt 0.0000 0.3524 19.2374
vt 0.0736 0.5747 19.2374
vt 0.1264 0.5747 19.2374
vt 0.0500 0.5000 19.2374
vt 0.1000 0.5000 19.2374
vt 0.1500 0.5000 19.2374
vt 0.0264 0.4253 19.2374
vt 0.0754 0.4179 19.2374
vt 0.1246 0.4179 19.2374
vt 0.1736 0.4253 19.2374
vt 0.0487 0.3312 19.2374
vt 0.1000 0.3238 19.2374
vt 0.1513 0.3312 19.2374
vt 0.2000 0.3524 19.2374
vt 0.2736 0.5747 19.2374
vt 0.3264 0.5747 19.2374
vt 0.2500 0.5000 19.2374
vt 0.3000 0.5000 19.2374
vt 0.3500 0.5000 19.2374
vt 0.2264 0.4253 19.2374
vt 0.2754 0.4179 19.2374
vt 0.3246 0.4179 19.2374
vt 0.3736 0.4253 19.2374
vt 0.2487 0.3312 19.2374
vt 0.3000 0.3238 19.2374
vt 0.3513 0.3312 19.2374
vt 0.6000 0.5000 19.2374
vt 0.6246 0.5821 19.2374
vt 0.5754 0.5821 19.2374
vt 0.8000 0.5000 19.2374
vt 0.8246 0.5821 19.2374
vt 0.7754 0.5821 19.2374
vt 0.0000 0.5000 19.2374
vt -0.0500 0.5000 19.2374
vt 0.0246 0.5821 19.2374
vt -0.0246 0.5821 19.2374
vt 0.9754 0.5821 19.2374
vt 0.2000 0.5000 19.2374
vt 0.2246 0.5821 19.2374
vt 0.1754 0.5821 19.2374
vt 0.4000 0.5000 19.2374
vt 0.4246 0.5821 19.2374
vt 0.3754 0.5821 19.2374
vt 0.7000 0.0000 19.2374
vt 0.8000 0.0881 19.2374
vt 0.6000 0.0881 19.2374
vt 0.8000 0.1762 19.2374
vt 0.7000 0.1476 19.2374
vt 0.6000 0.1762 19.2374
vt 0.8000 0.2643 19.2374
vt 0.7356 0.2346 19.2374
vt 0.6644 0.2346 19.2374
vt 0.6000 0.2643 19.2374
vt -0.1000 0.0000 19.2374
vt 0.0000 0.0881 19.2374
vt -0.2000 0.0881 19.2374
vt 0.0000 0.1762 19.2374
vt -0.1000 0.1476 19.2374
vt 0.9000 0.1476 19.2374
vt 0.0000 0.2643 19.2374
vt -0.0644 0.2346 19.2374
vt 0.9356 0.2346 19.2374
vt 0.8644 0.2346 19.2374
vt 0.1000 0.0000 19.2374
vt 0.2000 0.0881 19.2374
vt 0.2000 0.1762 19.2374
vt 0.1000 0.1476 19.2374
vt 0.2000 0.2643 19.2374
vt 0.1356 0.2346 19.2374
vt 0.0644 0.2346 19.2374
vt 0.3000 0.0000 19.2374
vt 0.4000 0.0881 19.2374
vt 0.4000 0.1762 19.2374
vt 0.3000 0.1476 19.2374
vt 0.4000 0.2643 19.2374
vt 0.3356 0.2346 19.2374
vt 0.2644 0.2346 19.2374
vt 0.5000 0.0000 19.2374
vt 0.5000 0.1476 19.2374
vt 0.5356 0.2346 19.2374
vt 0.4644 0.2346 19.2374
# 181 texture coords

g GeoSphere001
usemtl Material__25
s 1
f 1/1/1 2/2/2 3/3/3 
f 2/2/2 4/4/4 5/5/5 
f 2/2/2 5/5/5 3/3/3 
f 3/3/3 5/5/5 6/6/6 
f 4/4/4 7/7/7 8/8/8 
f 4/4/4 8/8/8 5/5/5 
f 5/5/5 8/8/8 9/9/9 
f 5/5/5 9/9/9 6/6/6 
f 6/6/6 9/9/9 10/10/10 
f 7/7/7 11/11/11 12/12/12 
f 7/7/7 12/12/12 8/8/8 
f 8/8/8 12/12/12 13/13/13 
f 8/8/8 13/13/13 9/9/9 
f 9/9/9 13/13/13 14/14/14 
f 9/9/9 14/14/14 10/10/10 
f 10/10/10 14/14/14 15/15/15 
f 1/16/1 3/3/3 16/17/16 
f 3/3/3 6/6/6 17/18/17 
f 3/3/3 17/18/17 16/17/16 
f 16/17/16 17/18/17 18/19/18 
f 6/6/6 10/10/10 19/20/19 
f 6/6/6 19/20/19 17/18/17 
f 17/18/17 19/20/19 20/21/20 
f 17/18/17 20/21/20 18/19/18 
f 18/19/18 20/21/20 21/22/21 
f 10/10/10 15/15/15 22/23/22 
f 10/10/10 22/23/22 19/20/19 
f 19/20/19 22/23/22 23/24/23 
f 19/20/19 23/24/23 20/21/20 
f 20/21/20 23/24/23 24/25/24 
f 20/21/20 24/25/24 21/22/21 
f 21/22/21 24/25/24 25/26/25 
f 1/27/1 16/28/16 26/29/26 
f 16/28/16 18/30/18 27/31/27 
f 16/28/16 27/31/27 26/29/26 
f 26/29/26 27/31/27 28/32/28 
f 18/19/18 21/22/21 29/33/29 
f 18/30/18 29/34/29 27/31/27 
f 27/31/27 29/34/29 30/35/30 
f 27/31/27 30/35/30 28/32/28 
f 28/32/28 30/35/30 31/36/31 
f 21/22/21 25/26/25 32/37/32 
f 21/22/21 32/37/32 29/33/29 
f 29/34/29 32/38/32 33/39/33 
f 29/34/29 33/39/33 30/35/30 
f 30/35/30 33/39/33 34/40/34 
f 30/35/30 34/40/34 31/36/31 
f 31/36/31 34/40/34 35/41/35 
f 1/42/1 26/29/26 36/43/36 
f 26/29/26 28/32/28 37/44/37 
f 26/29/26 37/44/37 36/43/36 
f 36/43/36 37/44/37 38/45/38 
f 28/32/28 31/36/31 39/46/39 
f 28/32/28 39/46/39 37/44/37 
f 37/44/37 39/46/39 40/47/40 
f 37/44/37 40/47/40 38/45/38 
f 38/45/38 40/47/40 41/48/41 
f 31/36/31 35/41/35 42/49/42 
f 31/36/31 42/49/42 39/46/39 
f 39/46/39 42/49/42 43/50/43 
f 39/46/39 43/50/43 40/47/40 
f 40/47/40 43/50/43 44/51/44 
f 40/47/40 44/51/44 41/48/41 
f 41/48/41 44/51/44 45/52/45 
f 1/53/1 36/43/36 2/2/2 
f 36/43/36 38/45/38 46/54/46 
f 36/43/36 46/54/46 2/2/2 
f 2/2/2 46/54/46 4/4/4 
f 38/45/38 41/48/41 47/55/47 
f 38/45/38 47/55/47 46/54/46 
f 46/54/46 47/55/47 48/56/48 
f 46/54/46 48/56/48 4/4/4 
f 4/4/4 48/56/48 7/7/7 
f 41/48/41 45/52/45 49/57/49 
f 41/48/41 49/57/49 47/55/47 
f 47/55/47 49/57/49 50/58/50 
f 47/55/47 50/58/50 48/56/48 
f 48/56/48 50/58/50 51/59/51 
f 48/56/48 51/59/51 7/7/7 
f 7/7/7 51/59/51 11/11/11 
f 11/11/11 52/60/52 53/61/53 
f 52/60/52 54/62/54 55/63/55 
f 52/60/52 55/63/55 53/61/53 
f 53/61/53 55/63/55 56/64/56 
f 54/62/54 57/65/57 58/66/58 
f 54/62/54 58/66/58 55/63/55 
f 55/63/55 58/66/58 59/67/59 
f 55/63/55 59/67/59 56/64/56 
f 56/64/56 59/67/59 60/68/60 
f 57/65/57 61/69/61 62/70/62 
f 57/65/57 62/70/62 58/66/58 
f 58/66/58 62/70/62 63/71/63 
f 58/66/58 63/71/63 59/67/59 
f 59/67/59 63/71/63 64/72/64 
f 59/67/59 64/72/64 60/68/60 
f 60/68/60 64/72/64 65/73/65 
f 15/15/15 66/74/66 67/75/67 
f 66/74/66 68/76/68 69/77/69 
f 66/74/66 69/77/69 67/75/67 
f 67/75/67 69/77/69 70/78/70 
f 68/76/68 71/79/71 72/80/72 
f 68/76/68 72/80/72 69/77/69 
f 69/77/69 72/80/72 73/81/73 
f 69/77/69 73/81/73 70/78/70 
f 70/78/70 73/81/73 74/82/74 
f 71/79/71 65/73/65 75/83/75 
f 71/79/71 75/83/75 72/80/72 
f 72/80/72 75/83/75 76/84/76 
f 72/80/72 76/84/76 73/81/73 
f 73/81/73 76/84/76 77/85/77 
f 73/81/73 77/85/77 74/82/74 
f 74/82/74 77/85/77 78/86/78 
f 25/26/25 79/87/79 80/88/80 
f 79/87/79 81/89/81 82/90/82 
f 79/87/79 82/90/82 80/88/80 
f 80/88/80 82/90/82 83/91/83 
f 81/89/81 84/92/84 85/93/85 
f 81/89/81 85/93/85 82/90/82 
f 82/90/82 85/93/85 86/94/86 
f 82/90/82 86/94/86 83/91/83 
f 83/91/83 86/94/86 87/95/87 
f 84/92/84 78/86/78 88/96/88 
f 84/92/84 88/96/88 85/93/85 
f 85/93/85 88/96/88 89/97/89 
f 85/93/85 89/97/89 86/94/86 
f 86/94/86 89/97/89 90/98/90 
f 86/94/86 90/98/90 87/95/87 
f 87/99/87 90/100/90 91/101/91 
f 35/41/35 92/102/92 93/103/93 
f 92/102/92 94/104/94 95/105/95 
f 92/102/92 95/105/95 93/103/93 
f 93/103/93 95/105/95 96/106/96 
f 94/104/94 97/107/97 98/108/98 
f 94/104/94 98/108/98 95/105/95 
f 95/105/95 98/108/98 99/109/99 
f 95/105/95 99/109/99 96/106/96 
f 96/106/96 99/109/99 100/110/100 
f 97/107/97 91/101/91 101/111/101 
f 97/107/97 101/111/101 98/108/98 
f 98/108/98 101/111/101 102/112/102 
f 98/108/98 102/112/102 99/109/99 
f 99/109/99 102/112/102 103/113/103 
f 99/109/99 103/113/103 100/110/100 
f 100/110/100 103/113/103 104/114/104 
f 45/52/45 105/115/105 106/116/106 
f 105/115/105 107/117/107 108/118/108 
f 105/115/105 108/118/108 106/116/106 
f 106/116/106 108/118/108 109/119/109 
f 107/117/107 110/120/110 111/121/111 
f 107/117/107 111/121/111 108/118/108 
f 108/118/108 111/121/111 112/122/112 
f 108/118/108 112/122/112 109/119/109 
f 109/119/109 112/122/112 113/123/113 
f 110/120/110 104/114/104 114/124/114 
f 110/120/110 114/124/114 111/121/111 
f 111/121/111 114/124/114 115/125/115 
f 111/121/111 115/125/115 112/122/112 
f 112/122/112 115/125/115 116/126/116 
f 112/122/112 116/126/116 113/123/113 
f 113/123/113 116/126/116 61/69/61 
f 65/73/65 71/79/71 60/68/60 
f 71/79/71 68/76/68 117/127/117 
f 71/79/71 117/127/117 60/68/60 
f 60/68/60 117/127/117 56/64/56 
f 68/76/68 66/74/66 118/128/118 
f 68/76/68 118/128/118 117/127/117 
f 117/127/117 118/128/118 119/129/119 
f 117/127/117 119/129/119 56/64/56 
f 56/64/56 119/129/119 53/61/53 
f 66/74/66 15/15/15 14/14/14 
f 66/74/66 14/14/14 118/128/118 
f 118/128/118 14/14/14 13/13/13 
f 118/128/118 13/13/13 119/129/119 
f 119/129/119 13/13/13 12/12/12 
f 119/129/119 12/12/12 53/61/53 
f 53/61/53 12/12/12 11/11/11 
f 78/86/78 84/92/84 74/82/74 
f 84/92/84 81/89/81 120/130/120 
f 84/92/84 120/130/120 74/82/74 
f 74/82/74 120/130/120 70/78/70 
f 81/89/81 79/87/79 121/131/121 
f 81/89/81 121/131/121 120/130/120 
f 120/130/120 121/131/121 122/132/122 
f 120/130/120 122/132/122 70/78/70 
f 70/78/70 122/132/122 67/75/67 
f 79/87/79 25/26/25 24/25/24 
f 79/87/79 24/25/24 121/131/121 
f 121/131/121 24/25/24 23/24/23 
f 121/131/121 23/24/23 122/132/122 
f 122/132/122 23/24/23 22/23/22 
f 122/132/122 22/23/22 67/75/67 
f 67/75/67 22/23/22 15/15/15 
f 91/101/91 97/107/97 87/99/87 
f 97/107/97 94/104/94 123/133/123 
f 97/107/97 123/133/123 87/99/87 
f 87/99/87 123/133/123 83/134/83 
f 94/104/94 92/102/92 124/135/124 
f 94/104/94 124/135/124 123/133/123 
f 123/133/123 124/135/124 125/136/125 
f 123/133/123 125/136/125 83/134/83 
f 83/91/83 125/137/125 80/88/80 
f 92/102/92 35/41/35 34/40/34 
f 92/102/92 34/40/34 124/135/124 
f 124/135/124 34/40/34 33/39/33 
f 124/135/124 33/39/33 125/136/125 
f 125/136/125 33/39/33 32/38/32 
f 125/137/125 32/37/32 80/88/80 
f 80/88/80 32/37/32 25/26/25 
f 104/114/104 110/120/110 100/110/100 
f 110/120/110 107/117/107 126/138/126 
f 110/120/110 126/138/126 100/110/100 
f 100/110/100 126/138/126 96/106/96 
f 107/117/107 105/115/105 127/139/127 
f 107/117/107 127/139/127 126/138/126 
f 126/138/126 127/139/127 128/140/128 
f 126/138/126 128/140/128 96/106/96 
f 96/106/96 128/140/128 93/103/93 
f 105/115/105 45/52/45 44/51/44 
f 105/115/105 44/51/44 127/139/127 
f 127/139/127 44/51/44 43/50/43 
f 127/139/127 43/50/43 128/140/128 
f 128/140/128 43/50/43 42/49/42 
f 128/140/128 42/49/42 93/103/93 
f 93/103/93 42/49/42 35/41/35 
f 61/69/61 57/65/57 113/123/113 
f 57/65/57 54/62/54 129/141/129 
f 57/65/57 129/141/129 113/123/113 
f 113/123/113 129/141/129 109/119/109 
f 54/62/54 52/60/52 130/142/130 
f 54/62/54 130/142/130 129/141/129 
f 129/141/129 130/142/130 131/143/131 
f 129/141/129 131/143/131 109/119/109 
f 109/119/109 131/143/131 106/116/106 
f 52/60/52 11/11/11 51/59/51 
f 52/60/52 51/59/51 130/142/130 
f 130/142/130 51/59/51 50/58/50 
f 130/142/130 50/58/50 131/143/131 
f 131/143/131 50/58/50 49/57/49 
f 131/143/131 49/57/49 106/116/106 
f 106/116/106 49/57/49 45/52/45 
f 132/144/132 133/145/133 134/146/134 
f 133/145/133 135/147/135 136/148/136 
f 133/145/133 136/148/136 134/146/134 
f 134/146/134 136/148/136 137/149/137 
f 135/147/135 138/150/138 139/151/139 
f 135/147/135 139/151/139 136/148/136 
f 136/148/136 139/151/139 140/152/140 
f 136/148/136 140/152/140 137/149/137 
f 137/149/137 140/152/140 141/153/141 
f 138/150/138 78/86/78 77/85/77 
f 138/150/138 77/85/77 139/151/139 
f 139/151/139 77/85/77 76/84/76 
f 139/151/139 76/84/76 140/152/140 
f 140/152/140 76/84/76 75/83/75 
f 140/152/140 75/83/75 141/153/141 
f 141/153/141 75/83/75 65/73/65 
f 132/154/132 142/155/142 133/156/133 
f 142/155/142 143/157/143 144/158/144 
f 142/155/142 144/158/144 133/156/133 
f 133/145/133 144/159/144 135/147/135 
f 143/157/143 145/160/145 146/161/146 
f 143/157/143 146/161/146 144/158/144 
f 144/159/144 146/162/146 147/163/147 
f 144/159/144 147/163/147 135/147/135 
f 135/147/135 147/163/147 138/150/138 
f 145/160/145 91/101/91 90/100/90 
f 145/160/145 90/100/90 146/161/146 
f 146/162/146 90/98/90 89/97/89 
f 146/162/146 89/97/89 147/163/147 
f 147/163/147 89/97/89 88/96/88 
f 147/163/147 88/96/88 138/150/138 
f 138/150/138 88/96/88 78/86/78 
f 132/164/132 148/165/148 142/155/142 
f 148/165/148 149/166/149 150/167/150 
f 148/165/148 150/167/150 142/155/142 
f 142/155/142 150/167/150 143/157/143 
f 149/166/149 151/168/151 152/169/152 
f 149/166/149 152/169/152 150/167/150 
f 150/167/150 152/169/152 153/170/153 
f 150/167/150 153/170/153 143/157/143 
f 143/157/143 153/170/153 145/160/145 
f 151/168/151 104/114/104 103/113/103 
f 151/168/151 103/113/103 152/169/152 
f 152/169/152 103/113/103 102/112/102 
f 152/169/152 102/112/102 153/170/153 
f 153/170/153 102/112/102 101/111/101 
f 153/170/153 101/111/101 145/160/145 
f 145/160/145 101/111/101 91/101/91 
f 132/171/132 154/172/154 148/165/148 
f 154/172/154 155/173/155 156/174/156 
f 154/172/154 156/174/156 148/165/148 
f 148/165/148 156/174/156 149/166/149 
f 155/173/155 157/175/157 158/176/158 
f 155/173/155 158/176/158 156/174/156 
f 156/174/156 158/176/158 159/177/159 
f 156/174/156 159/177/159 149/166/149 
f 149/166/149 159/177/159 151/168/151 
f 157/175/157 61/69/61 116/126/116 
f 157/175/157 116/126/116 158/176/158 
f 158/176/158 116/126/116 115/125/115 
f 158/176/158 115/125/115 159/177/159 
f 159/177/159 115/125/115 114/124/114 
f 159/177/159 114/124/114 151/168/151 
f 151/168/151 114/124/114 104/114/104 
f 132/178/132 134/146/134 154/172/154 
f 134/146/134 137/149/137 160/179/160 
f 134/146/134 160/179/160 154/172/154 
f 154/172/154 160/179/160 155/173/155 
f 137/149/137 141/153/141 161/180/161 
f 137/149/137 161/180/161 160/179/160 
f 160/179/160 161/180/161 162/181/162 
f 160/179/160 162/181/162 155/173/155 
f 155/173/155 162/181/162 157/175/157 
f 141/153/141 65/73/65 64/72/64 
f 141/153/141 64/72/64 161/180/161 
f 161/180/161 64/72/64 63/71/63 
f 161/180/161 63/71/63 162/181/162 
f 162/181/162 63/71/63 62/70/62 
f 162/181/162 62/70/62 157/175/157 
f 157/175/157 62/70/62 61/69/61 
# 0 polygons - 320 triangles

